<svg xmlns="http://www.w3.org/2000/svg" width="1024" height="1024" viewBox="0 0 1024 1024">
<g fill="white">
<path d="M 348,882 349,882 350,883 351,883 352,884 354,884 355,885 356,885 357,886 359,886 360,887 362,887 363,888 365,888 366,889 368,889 369,890 371,890 372,891 375,891 376,892 378,892 379,893 382,893 383,894 386,894 387,895 390,895 391,896 394,896 395,897 398,897 399,898 403,898 404,899 407,899 408,900 413,900 414,901 417,901 418,902 422,902 423,903 428,903 429,904 431,904 432,905 437,905 438,906 444,906 445,907 454,907 455,908 463,908 464,909 473,909 474,910 491,910 492,911 531,911 532,910 549,910 550,909 559,909 560,908 569,908 570,907 576,907 577,906 583,906 584,905 589,905 590,904 595,904 596,903 600,903 601,902 605,902 606,901 610,901 611,900 615,900 616,899 620,899 621,898 625,898 626,897 629,897 630,896 633,896 634,895 636,895 637,894 640,894 641,893 643,893 644,892 647,892 648,891 651,891 652,890 654,890 655,889 657,889 658,888 660,888 661,887 664,887 665,886 667,886 668,885 669,885 670,884 671,884 672,883 674,883 675,882 Z"/>
<path d="M 636,862 636,875 659,875 660,876 670,876 671,877 677,877 678,878 683,878 683,875 684,874 684,873 683,872 683,868 681,868 680,867 673,867 672,866 668,866 667,865 662,865 661,864 657,864 656,863 647,863 646,862 Z"/>
<path d="M 371,862 370,863 363,863 362,864 358,864 357,865 353,865 352,866 348,866 347,867 342,867 340,869 339,869 339,871 340,872 340,878 344,878 345,877 355,877 356,876 367,876 368,875 384,875 385,874 387,874 387,868 386,867 386,862 Z"/>
<path d="M 641,830 640,831 640,835 639,836 639,842 651,842 652,843 661,843 662,844 669,844 670,845 674,845 675,846 681,846 682,847 687,847 688,846 688,842 689,841 689,838 687,838 686,837 683,837 682,836 679,836 678,835 674,835 673,834 669,834 668,833 665,833 664,832 660,832 659,831 655,831 654,830 Z"/>
<path d="M 370,830 369,831 362,831 361,832 358,832 357,833 352,833 351,834 348,834 347,835 342,835 341,836 338,836 337,837 335,837 335,847 336,848 337,848 338,847 341,847 342,846 347,846 348,845 354,845 355,844 361,844 362,843 374,843 375,842 384,842 384,837 383,836 383,830 Z"/>
<path d="M 645,797 644,798 644,802 643,803 643,806 642,807 642,809 644,809 645,810 658,810 659,811 667,811 668,812 674,812 675,813 679,813 680,814 683,814 684,815 687,815 688,816 690,816 691,817 691,816 692,815 692,812 693,811 693,806 692,806 691,805 689,805 688,804 685,804 684,803 681,803 680,802 677,802 676,801 673,801 672,800 668,800 667,799 661,799 660,798 654,798 653,797 Z"/>
<path d="M 371,797 370,798 363,798 362,799 357,799 356,800 351,800 350,801 346,801 345,802 341,802 340,803 337,803 336,804 333,804 332,805 330,805 330,814 331,815 331,816 334,816 335,815 339,815 340,814 344,814 345,813 350,813 351,812 356,812 357,811 365,811 366,810 381,810 381,809 380,808 380,804 379,803 379,800 378,799 378,797 Z"/>
<path d="M 650,765 649,766 649,770 648,771 648,775 647,776 647,777 653,777 654,778 664,778 665,779 672,779 673,780 677,780 678,781 681,781 682,782 686,782 687,783 689,783 690,784 692,784 693,785 695,785 696,786 698,786 698,784 699,783 699,780 700,779 700,776 699,775 697,775 696,774 694,774 693,773 690,773 689,772 686,772 685,771 682,771 681,770 678,770 677,769 675,769 674,768 670,768 669,767 666,767 665,766 659,766 658,765 Z"/>
<path d="M 369,764 368,765 363,765 362,766 358,766 357,767 353,767 352,768 349,768 348,769 345,769 344,770 340,770 339,771 335,771 334,772 331,772 330,773 328,773 327,774 325,774 324,775 323,775 322,776 322,777 323,778 323,781 324,782 324,786 325,787 326,786 327,786 328,785 331,785 332,784 334,784 335,783 338,783 339,782 342,782 343,781 347,781 348,780 353,780 354,779 359,779 360,778 366,778 367,777 375,777 375,775 374,774 374,771 373,770 373,767 372,766 372,764 Z"/>
<path d="M 657,733 657,736 656,737 656,742 655,743 655,744 656,745 661,745 662,746 667,746 668,747 674,747 675,748 678,748 679,749 681,749 682,750 684,750 685,751 688,751 689,752 691,752 692,753 694,753 695,754 698,754 699,755 700,755 701,756 703,756 704,757 705,757 706,756 706,754 707,753 707,750 708,749 707,748 706,748 705,747 704,747 703,746 701,746 700,745 699,745 698,744 697,744 696,743 694,743 693,742 692,742 691,741 689,741 688,740 685,740 684,739 681,739 680,738 677,738 676,737 674,737 673,736 669,736 668,735 665,735 664,734 660,734 659,733 Z"/>
<path d="M 363,733 362,734 359,734 358,735 355,735 354,736 350,736 349,737 346,737 345,738 343,738 342,739 339,739 338,740 335,740 334,741 332,741 331,742 330,742 329,743 328,743 327,744 326,744 325,745 323,745 322,746 321,746 320,747 318,747 316,749 315,749 315,751 316,752 316,754 317,755 317,756 318,757 320,757 321,756 323,756 324,755 325,755 326,754 328,754 329,753 331,753 332,752 334,752 335,751 337,751 338,750 341,750 342,749 345,749 346,748 350,748 351,747 356,747 357,746 362,746 363,745 366,745 367,744 368,744 368,742 367,741 367,738 366,737 366,734 365,733 Z"/>
<path d="M 666,705 666,706 665,707 665,709 664,710 664,711 663,712 663,716 670,716 671,717 674,717 675,718 679,718 680,719 684,719 685,720 687,720 688,721 690,721 691,722 693,722 694,723 695,723 696,724 698,724 699,725 701,725 702,726 703,726 704,727 705,727 706,728 708,728 709,729 710,729 711,730 712,730 713,731 714,731 715,732 715,731 716,730 716,727 717,726 717,723 715,721 713,721 712,720 711,720 710,719 709,719 708,718 707,718 706,717 705,717 704,716 702,716 701,715 700,715 699,714 698,714 697,713 695,713 694,712 693,712 692,711 689,711 688,710 686,710 685,709 682,709 681,708 679,708 678,707 674,707 673,706 669,706 668,705 Z"/>
<path d="M 355,705 354,706 349,706 348,707 345,707 344,708 341,708 340,709 337,709 336,710 333,710 332,711 331,711 330,712 328,712 327,713 326,713 325,714 323,714 322,715 321,715 320,716 318,716 317,717 316,717 315,718 314,718 313,719 312,719 311,720 310,720 309,721 308,721 307,722 306,722 305,723 306,724 306,727 307,728 307,731 310,731 311,730 312,730 313,729 314,729 315,728 316,728 317,727 319,727 320,726 321,726 322,725 323,725 324,724 326,724 327,723 329,723 330,722 332,722 333,721 335,721 336,720 339,720 340,719 342,719 343,718 347,718 348,717 353,717 354,716 359,716 359,712 358,711 358,710 357,709 357,708 356,707 356,706 Z"/>
<path d="M 675,677 675,679 674,680 674,682 673,683 673,688 678,688 679,689 684,689 685,690 688,690 689,691 691,691 692,692 694,692 695,693 696,693 697,694 699,694 700,695 702,695 703,696 705,696 706,697 707,697 708,698 710,698 711,699 712,699 713,700 714,700 715,701 716,701 717,702 719,702 721,704 723,704 723,702 724,701 724,699 725,698 725,695 724,695 723,694 722,694 721,693 720,693 719,692 718,692 717,691 716,691 715,690 714,690 713,689 712,689 711,688 709,688 708,687 707,687 706,686 705,686 704,685 703,685 702,684 700,684 699,683 697,683 696,682 693,682 692,681 690,681 689,680 686,680 685,679 682,679 681,678 678,678 677,677 Z"/>
<path d="M 343,677 342,678 340,678 339,679 337,679 336,680 334,680 333,681 330,681 329,682 328,682 327,683 325,683 324,684 322,684 321,685 320,685 319,686 317,686 316,687 314,687 312,689 310,689 309,690 308,690 307,691 306,691 305,692 304,692 303,693 302,693 301,694 300,694 299,695 298,695 297,696 297,699 298,700 298,701 299,702 299,703 300,704 301,704 302,703 303,703 304,702 305,702 306,701 307,701 308,700 310,700 311,699 312,699 313,698 314,698 315,697 316,697 317,696 319,696 320,695 322,695 323,694 325,694 326,693 328,693 329,692 331,692 332,691 335,691 336,690 339,690 340,689 345,689 346,688 350,688 350,686 349,685 349,683 348,682 348,681 347,680 347,677 Z"/>
<path d="M 427,673 426,674 421,674 420,675 419,675 418,676 417,676 416,677 415,677 411,681 411,682 410,683 410,684 409,685 409,686 408,687 408,690 407,691 407,715 406,716 407,717 407,819 406,820 407,821 407,823 406,824 406,829 407,830 406,831 407,832 407,833 406,834 407,835 407,841 408,842 408,843 409,844 409,845 411,847 411,848 416,853 417,853 419,855 420,855 421,856 425,856 426,857 428,857 429,856 593,856 594,857 596,857 597,856 602,856 603,855 604,855 605,854 606,854 608,852 609,852 613,848 613,847 614,846 614,845 615,844 615,843 616,842 616,690 615,689 615,686 614,685 614,684 612,682 612,681 608,677 607,677 606,676 605,676 604,675 603,675 602,674 596,674 595,673 575,673 574,674 573,673 541,673 540,674 539,673 512,673 511,674 507,674 506,673 462,673 461,674 460,674 459,673 Z"/>
<path d="M 685,650 685,652 684,653 684,654 683,655 683,657 682,658 682,659 681,660 684,660 685,661 688,661 689,662 691,662 692,663 694,663 695,664 698,664 699,665 701,665 702,666 705,666 706,667 708,667 709,668 712,668 713,669 714,669 715,670 716,670 717,671 718,671 719,672 720,672 721,673 722,673 723,674 725,674 726,675 727,675 728,676 729,676 730,677 731,677 732,678 733,677 733,675 735,673 735,672 736,671 736,669 734,667 733,667 732,666 731,666 730,665 729,665 728,664 726,664 725,663 724,663 723,662 722,662 721,661 720,661 719,660 717,660 716,659 714,659 713,658 711,658 710,657 708,657 707,656 705,656 704,655 702,655 701,654 699,654 698,653 696,653 695,652 691,652 690,651 687,651 686,650 Z"/>
<path d="M 334,650 333,651 331,651 330,652 327,652 326,653 325,653 324,654 321,654 320,655 319,655 318,656 315,656 314,657 312,657 311,658 309,658 308,659 307,659 306,660 304,660 303,661 302,661 301,662 299,662 298,663 297,663 296,664 295,664 294,665 293,665 291,667 290,667 289,668 288,668 287,669 288,670 288,672 289,673 289,674 290,675 290,677 293,677 294,676 295,676 296,675 297,675 298,674 299,674 300,673 301,673 302,672 303,672 304,671 306,671 307,670 309,670 310,669 311,669 312,668 315,668 316,667 319,667 320,666 322,666 323,665 325,665 326,664 327,664 328,663 331,663 332,662 335,662 336,661 339,661 340,660 340,659 339,658 339,655 338,654 338,653 337,652 337,651 336,650 Z"/>
<path d="M 346,594 347,595 347,596 348,597 348,598 349,599 349,601 350,602 350,604 351,605 351,606 352,607 352,609 353,610 353,612 354,613 354,615 355,616 355,618 356,619 356,621 357,622 357,624 358,625 358,627 359,628 359,630 360,631 360,632 361,633 361,634 362,635 362,637 363,638 363,639 364,640 364,642 365,643 365,646 366,647 366,648 367,649 367,652 368,653 368,655 369,656 369,659 370,660 370,663 371,664 371,666 372,667 372,670 373,671 373,675 374,675 374,673 375,672 375,670 377,668 377,666 378,665 378,664 380,662 380,661 391,650 392,650 394,648 395,648 396,647 397,647 398,646 399,646 400,645 401,645 402,644 403,644 404,643 407,643 408,642 616,642 617,643 620,643 621,644 623,644 624,645 625,645 627,647 628,647 630,649 631,649 632,650 633,650 637,654 638,654 639,655 639,656 644,661 644,662 646,664 646,665 647,666 647,667 648,668 648,670 648,668 649,667 649,665 650,664 650,662 651,661 651,659 652,658 652,656 653,655 653,654 654,653 654,651 655,650 655,648 656,647 656,645 657,644 657,641 658,640 658,638 659,637 659,635 660,634 660,632 661,631 661,630 662,629 662,627 663,626 663,624 664,623 664,622 665,621 665,619 666,618 666,617 667,616 667,614 668,613 668,612 669,611 669,609 670,608 670,606 671,605 671,604 672,603 672,601 673,600 673,599 674,598 674,597 673,597 672,598 671,598 670,599 669,599 668,600 666,600 665,601 663,601 662,602 661,602 660,603 657,603 656,604 654,604 653,605 651,605 650,606 648,606 647,607 645,607 644,608 643,608 642,609 639,609 638,610 635,610 634,611 632,611 631,612 628,612 627,613 623,613 622,614 619,614 618,615 615,615 614,616 610,616 609,617 605,617 604,618 600,618 599,619 595,619 594,620 588,620 587,621 580,621 579,622 569,622 568,623 561,623 560,624 553,624 552,625 539,625 538,626 492,626 491,625 477,625 476,624 468,624 467,623 460,623 459,622 451,622 450,621 443,621 442,620 436,620 435,619 431,619 430,618 425,618 424,617 421,617 420,616 417,616 416,615 411,615 410,614 408,614 407,613 404,613 403,612 399,612 398,611 395,611 394,610 392,610 391,609 389,609 388,608 386,608 385,607 383,607 382,606 380,606 379,605 377,605 376,604 374,604 373,603 371,603 370,602 368,602 367,601 365,601 364,600 362,600 361,599 360,599 359,598 358,598 357,597 355,597 354,596 353,596 352,595 350,595 349,594 Z"/>
<path d="M 338,512 337,513 337,531 339,533 340,533 342,535 343,535 345,537 346,537 347,538 348,538 350,540 351,540 352,541 353,541 354,542 355,542 357,544 359,544 360,545 361,545 362,546 363,546 364,547 365,547 366,548 367,548 368,549 369,549 370,550 371,550 372,551 373,551 374,552 376,552 377,553 378,553 379,554 381,554 382,555 384,555 385,556 386,556 387,557 389,557 390,558 392,558 393,559 395,559 396,560 398,560 399,561 402,561 403,562 405,562 406,563 409,563 410,564 412,564 413,565 416,565 417,566 419,566 420,567 422,567 423,568 426,568 427,569 432,569 433,570 436,570 437,571 442,571 443,572 449,572 450,573 457,573 458,574 463,574 464,575 470,575 471,576 478,576 479,577 506,577 507,578 525,578 526,577 537,577 538,576 551,576 552,575 560,575 561,574 568,574 569,573 575,573 576,572 581,572 582,571 586,571 587,570 592,570 593,569 596,569 597,568 600,568 601,567 604,567 605,566 608,566 609,565 612,565 613,564 615,564 616,563 619,563 620,562 622,562 623,561 625,561 626,560 628,560 629,559 631,559 632,558 634,558 635,557 636,557 637,556 638,556 639,555 641,555 642,554 644,554 645,553 646,553 647,552 648,552 649,551 651,551 652,550 653,550 654,549 656,549 658,547 659,547 660,546 661,546 662,545 663,545 664,544 665,544 666,543 667,543 668,542 669,542 670,541 671,541 672,540 673,540 674,539 675,539 677,537 678,537 680,535 681,535 685,531 685,519 684,518 684,512 683,512 678,517 677,517 674,520 673,520 670,523 669,523 667,525 666,525 664,527 663,527 661,529 660,529 658,531 657,531 656,532 655,532 654,533 653,533 652,534 651,534 650,535 649,535 648,536 647,536 646,537 645,537 644,538 643,538 642,539 641,539 640,540 638,540 637,541 636,541 635,542 634,542 633,543 632,543 631,544 630,544 629,545 627,545 626,546 624,546 623,547 621,547 620,548 618,548 617,549 614,549 613,550 611,550 610,551 607,551 606,552 604,552 603,553 600,553 599,554 596,554 595,555 591,555 590,556 586,556 585,557 581,557 580,558 574,558 573,559 569,559 568,560 564,560 563,561 553,561 552,562 540,562 539,563 479,563 478,562 470,562 469,561 461,561 460,560 455,560 454,559 448,559 447,558 442,558 441,557 438,557 437,556 433,556 432,555 429,555 428,554 425,554 424,553 421,553 420,552 418,552 417,551 414,551 413,550 411,550 410,549 408,549 407,548 404,548 403,547 401,547 400,546 398,546 397,545 396,545 395,544 394,544 393,543 391,543 390,542 389,542 388,541 387,541 386,540 384,540 383,539 382,539 381,538 380,538 379,537 377,537 376,536 375,536 374,535 373,535 372,534 371,534 370,533 369,533 368,532 367,532 366,531 365,531 363,529 362,529 361,528 360,528 358,526 357,526 354,523 353,523 350,520 349,520 346,517 345,517 341,513 340,513 339,512 Z"/>
<path d="M 337,293 337,294 336,295 336,296 335,297 335,298 334,299 334,300 333,301 333,302 332,303 332,305 331,306 331,307 330,308 330,310 329,311 329,313 328,314 328,316 327,317 327,319 326,320 326,323 325,324 325,327 324,328 324,331 323,332 323,336 322,337 322,342 321,343 321,348 320,349 320,357 319,358 319,368 318,369 318,388 319,389 319,400 320,401 320,410 321,411 321,417 322,418 322,424 323,425 323,429 324,430 324,432 325,433 325,435 326,436 326,439 327,440 327,442 328,443 328,444 329,445 329,447 330,448 330,449 331,450 331,451 332,452 332,453 333,454 333,456 334,457 334,458 335,459 335,460 336,461 336,462 337,463 337,464 338,465 338,466 339,467 339,468 340,469 340,470 341,471 341,472 342,473 342,474 345,477 345,478 349,482 349,483 352,486 352,487 355,490 355,491 358,494 358,495 359,496 360,496 371,507 372,507 374,509 375,509 377,511 378,511 381,514 382,514 383,515 384,515 386,517 387,517 389,519 390,519 392,521 393,521 394,522 395,522 396,523 397,523 398,524 400,524 401,525 402,525 403,526 404,526 405,527 406,527 407,528 409,528 410,529 411,529 412,530 414,530 415,531 417,531 418,532 420,532 421,533 423,533 424,534 427,534 428,535 430,535 431,536 435,536 436,537 440,537 441,538 445,538 446,539 452,539 453,540 459,540 460,541 467,541 468,542 474,542 475,543 486,543 487,544 506,544 507,545 513,545 514,544 515,545 516,544 539,544 540,543 547,543 548,542 555,542 556,541 563,541 564,540 570,540 571,539 577,539 578,538 582,538 583,537 586,537 587,536 590,536 591,535 593,535 594,534 597,534 598,533 600,533 601,532 604,532 605,531 607,531 608,530 610,530 611,529 613,529 614,528 615,528 616,527 618,527 619,526 620,526 621,525 622,525 623,524 624,524 625,523 627,523 628,522 629,522 631,520 632,520 635,517 636,517 638,515 639,515 640,514 641,514 643,512 644,512 646,510 647,510 651,506 652,506 665,493 665,492 670,487 670,486 674,482 674,481 675,480 675,479 677,477 677,476 679,474 679,473 680,472 680,471 682,469 682,468 683,467 683,466 684,465 684,464 685,463 685,462 686,461 686,460 687,459 687,458 688,457 688,456 689,455 689,453 690,452 690,451 691,450 691,448 692,447 692,446 693,445 693,444 694,443 694,441 695,440 695,438 696,437 696,435 697,434 697,432 698,431 698,428 699,427 699,421 700,420 700,416 701,415 701,410 702,409 702,402 703,401 703,392 704,391 704,367 703,366 703,359 702,358 702,352 701,351 701,345 700,344 700,340 699,339 699,334 698,333 698,330 697,329 697,327 696,326 696,322 695,321 695,318 694,317 694,315 693,314 693,312 692,311 692,310 691,309 691,307 690,306 690,304 689,303 689,301 688,300 688,298 688,300 689,301 689,304 690,305 690,308 691,309 691,312 692,313 692,317 693,318 693,322 694,323 694,328 695,329 695,334 696,335 696,349 697,350 697,374 696,375 696,384 695,385 695,393 694,394 694,398 693,399 693,402 692,403 692,407 691,408 691,411 690,412 690,416 689,417 689,418 688,419 688,422 687,423 687,425 686,426 686,428 685,429 685,430 684,431 684,433 683,434 683,435 682,436 682,437 681,438 681,440 680,441 680,442 679,443 679,444 678,445 678,447 677,448 677,449 676,450 676,451 674,453 674,454 673,455 673,456 671,458 671,459 670,460 670,461 668,463 668,464 666,466 666,467 662,471 662,472 659,475 659,476 655,480 655,481 641,495 640,495 633,502 632,502 629,505 628,505 625,508 624,508 623,509 622,509 621,510 620,510 619,511 618,511 616,513 615,513 614,514 613,514 612,515 611,515 610,516 609,516 608,517 606,517 605,518 603,518 602,519 601,519 600,520 599,520 598,521 596,521 595,522 593,522 592,523 590,523 589,524 587,524 586,525 583,525 582,526 580,526 579,527 576,527 575,528 573,528 572,529 568,529 567,530 564,530 563,531 558,531 557,532 547,532 546,533 537,533 536,534 511,534 510,535 509,534 488,534 487,533 476,533 475,532 469,532 468,531 462,531 461,530 457,530 456,529 452,529 451,528 448,528 447,527 445,527 444,526 441,526 440,525 438,525 437,524 435,524 434,523 432,523 431,522 429,522 428,521 426,521 425,520 424,520 423,519 422,519 421,518 419,518 418,517 417,517 416,516 415,516 414,515 413,515 412,514 411,514 410,513 409,513 408,512 407,512 406,511 405,511 403,509 402,509 401,508 400,508 398,506 397,506 395,504 394,504 391,501 390,501 386,497 385,497 367,479 367,478 361,472 361,471 358,468 358,467 356,465 356,464 354,462 354,461 352,459 352,458 351,457 351,456 350,455 350,454 349,453 349,452 347,450 347,449 346,448 346,447 345,446 345,445 344,444 344,443 343,442 343,441 342,440 342,439 341,438 341,437 340,436 340,434 339,433 339,431 338,430 338,429 337,428 337,426 336,425 336,423 335,422 335,419 334,418 334,416 333,415 333,412 332,411 332,408 331,407 331,403 330,402 330,397 329,396 329,392 328,391 328,386 327,385 327,378 326,377 326,343 327,342 327,336 328,335 328,328 329,327 329,321 330,320 330,316 331,315 331,313 332,312 332,309 333,308 333,306 334,305 334,303 335,302 335,299 336,298 336,296 337,295 Z"/>
<path d="M 497,218 496,219 479,219 478,220 469,220 468,221 460,221 459,222 453,222 452,223 448,223 447,224 444,224 443,225 439,225 438,226 436,226 435,227 432,227 431,228 428,228 427,229 425,229 424,230 422,230 421,231 419,231 418,232 417,232 416,233 414,233 413,234 412,234 411,235 410,235 409,236 407,236 406,237 405,237 404,238 403,238 402,239 401,239 400,240 399,240 398,241 397,241 396,242 395,242 393,244 392,244 391,245 390,245 388,247 387,247 385,249 384,249 381,252 380,252 374,258 373,258 371,260 371,261 370,262 369,262 369,263 363,269 363,270 362,271 362,272 360,274 360,275 358,277 358,278 357,279 357,281 356,282 356,283 355,284 355,286 354,287 354,289 353,290 353,292 352,293 352,294 351,295 351,297 350,298 350,301 349,302 349,304 348,305 348,308 347,309 347,312 346,313 346,317 345,318 345,323 344,324 344,330 343,331 343,339 342,340 342,347 341,348 341,372 342,373 342,382 343,383 343,391 344,392 344,396 345,397 345,400 346,401 346,404 347,405 347,408 348,409 348,411 349,412 349,414 350,415 350,417 351,418 351,420 352,421 352,422 353,423 353,425 354,426 354,428 355,429 355,430 356,431 356,433 357,434 357,435 358,436 358,437 359,438 359,439 361,441 361,442 362,443 362,444 364,446 364,447 366,449 366,450 368,452 368,453 370,455 370,456 371,457 371,458 376,463 376,464 394,482 395,482 399,486 400,486 404,490 405,490 408,493 409,493 410,494 411,494 413,496 414,496 415,497 416,497 418,499 419,499 420,500 421,500 422,501 423,501 424,502 425,502 426,503 427,503 428,504 429,504 430,505 431,505 432,506 433,506 434,507 436,507 437,508 439,508 440,509 442,509 443,510 445,510 446,511 448,511 449,512 451,512 452,513 455,513 456,514 461,514 462,515 466,515 467,516 471,516 472,517 476,517 477,518 483,518 484,519 491,519 492,520 526,520 527,519 538,519 539,518 545,518 546,517 552,517 553,516 557,516 558,515 563,515 564,514 567,514 568,513 571,513 572,512 574,512 575,511 577,511 578,510 581,510 582,509 583,509 584,508 586,508 587,507 589,507 590,506 591,506 592,505 593,505 594,504 595,504 596,503 598,503 599,502 600,502 602,500 603,500 604,499 605,499 606,498 607,498 608,497 609,497 611,495 612,495 613,494 614,494 616,492 617,492 619,490 620,490 624,486 625,486 629,482 630,482 643,469 643,468 650,461 650,460 653,457 653,456 654,455 654,454 657,451 657,450 659,448 659,447 660,446 660,445 662,443 662,442 663,441 663,440 664,439 664,438 665,437 665,436 666,435 666,434 667,433 667,432 668,431 668,430 669,429 669,428 670,427 670,425 671,424 671,423 672,422 672,420 673,419 673,416 674,415 674,413 675,412 675,410 676,409 676,404 677,403 677,399 678,398 678,394 679,393 679,389 680,388 680,382 681,381 681,373 682,372 682,345 681,344 681,336 680,335 680,329 679,328 679,325 678,324 678,319 677,318 677,313 676,312 676,309 675,308 675,304 674,303 674,301 673,300 673,297 672,296 672,294 671,293 671,290 670,289 670,288 669,287 669,285 668,284 668,283 667,282 667,281 666,280 666,279 665,278 665,277 663,275 663,274 661,272 661,271 659,269 659,268 656,265 656,264 647,255 646,255 641,250 640,250 637,247 636,247 635,246 634,246 632,244 631,244 630,243 629,243 628,242 627,242 626,241 625,241 624,240 623,240 622,239 621,239 620,238 619,238 618,237 617,237 616,236 615,236 614,235 612,235 611,234 610,234 609,233 607,233 606,232 604,232 603,231 601,231 600,230 598,230 597,229 595,229 594,228 593,228 592,227 588,227 587,226 584,226 583,225 579,225 578,224 575,224 574,223 571,223 570,222 565,222 564,221 554,221 553,220 544,220 543,219 530,219 529,218 Z"/>
<path d="M 500,112 499,113 489,113 488,114 480,114 479,115 474,115 473,116 467,116 466,117 462,117 461,118 458,118 457,119 455,119 454,120 452,120 451,121 449,121 448,122 446,122 445,123 443,123 442,124 439,124 438,125 437,125 436,126 434,126 433,127 432,127 431,128 430,128 429,129 427,129 426,130 425,130 424,131 423,131 422,132 420,132 419,133 418,133 417,134 416,134 415,135 414,135 413,136 412,136 411,137 410,137 409,138 408,138 407,139 406,139 405,140 404,140 402,142 401,142 400,143 399,143 398,144 397,144 394,147 393,147 391,149 390,149 389,150 388,150 384,154 383,154 381,156 380,156 378,158 377,158 372,163 371,163 365,169 364,169 357,176 357,177 344,190 344,191 340,195 340,196 336,200 336,201 333,204 333,205 331,207 331,208 328,211 328,212 326,214 326,215 324,217 324,218 323,219 323,220 321,222 321,223 319,225 319,226 318,227 318,228 317,229 317,230 316,231 316,232 315,233 315,235 314,236 314,237 313,238 313,239 312,240 312,241 311,242 311,243 310,244 310,245 309,246 309,247 308,248 308,250 307,251 307,253 306,254 306,256 305,257 305,258 304,259 304,261 303,262 303,263 302,264 302,266 301,267 301,268 300,269 300,272 299,273 299,276 298,277 298,281 297,282 297,284 296,285 296,289 295,290 295,294 294,295 294,296 292,298 291,298 290,299 288,299 287,300 286,300 285,301 284,301 283,302 282,302 281,303 280,303 277,306 276,306 275,307 275,308 272,311 272,312 270,314 270,315 269,316 269,318 268,319 268,321 267,322 267,325 266,326 266,401 267,402 267,406 268,407 268,409 270,411 270,412 271,413 271,414 278,421 279,421 282,424 283,424 284,425 285,425 286,426 288,426 289,427 291,427 292,428 295,428 298,431 298,432 299,433 299,435 300,436 300,438 301,439 301,441 302,442 302,444 303,445 303,446 304,447 304,449 305,450 305,452 306,453 306,454 307,455 307,457 308,458 308,460 309,461 309,462 312,465 312,466 313,467 313,468 314,469 313,470 312,470 311,469 304,469 303,470 293,470 292,471 288,471 287,472 285,472 284,473 282,473 281,474 280,474 279,475 277,475 276,476 274,476 273,477 272,477 271,478 270,478 269,479 268,479 267,480 266,480 264,482 263,482 260,485 259,485 249,495 249,496 247,498 247,499 245,501 245,502 244,503 244,504 243,505 243,507 242,508 242,511 241,512 241,517 240,518 240,525 239,526 239,577 236,580 235,580 233,582 232,582 231,583 230,583 228,585 227,585 224,588 223,588 221,590 220,590 218,592 217,592 215,594 214,594 210,598 209,598 206,601 205,601 200,606 199,606 190,615 189,615 184,620 184,621 180,625 180,626 176,630 176,631 172,635 172,636 170,638 170,639 169,640 169,641 166,644 166,645 164,647 164,649 162,651 162,652 161,653 161,654 160,655 160,656 159,657 159,659 158,660 158,661 157,662 157,664 156,665 156,667 155,668 155,670 154,671 154,672 153,673 153,675 152,676 152,678 151,679 151,682 150,683 150,686 149,687 149,691 148,692 148,696 147,697 147,702 146,703 146,710 145,711 145,721 144,722 144,732 143,733 143,745 142,746 142,754 143,755 143,756 155,768 156,768 165,777 166,777 170,781 171,781 177,787 178,787 183,792 184,792 188,796 189,796 191,798 192,798 195,801 196,801 199,804 200,804 203,807 204,807 207,810 208,810 210,812 211,812 213,814 214,814 216,816 217,816 219,818 220,818 223,821 224,821 227,824 228,824 230,826 231,826 233,828 234,828 235,829 236,829 237,830 238,830 240,832 241,832 242,833 243,833 245,835 246,835 247,836 248,836 250,838 251,838 253,840 254,840 255,841 256,841 257,842 258,842 259,843 260,843 262,845 263,845 264,846 265,846 266,847 267,847 269,849 270,849 271,850 273,850 275,852 276,852 277,853 278,853 279,854 280,854 281,855 282,855 283,856 284,856 286,858 288,858 289,859 290,859 291,860 293,860 294,861 295,861 296,862 297,862 298,863 299,863 300,864 301,864 302,865 303,865 304,866 305,866 306,867 307,867 308,868 310,868 311,869 312,869 313,870 314,870 315,871 317,871 318,872 319,872 320,873 322,873 323,874 324,874 325,875 326,875 326,861 325,860 325,854 324,853 324,845 323,844 323,835 322,834 322,828 321,827 321,821 320,820 320,817 319,816 319,813 318,812 318,809 317,808 317,804 316,803 316,800 315,799 315,794 314,793 314,790 313,789 313,787 312,786 312,783 311,782 311,779 310,778 310,777 309,776 309,773 308,772 308,769 307,768 307,765 306,764 306,761 305,760 305,758 304,757 304,755 303,754 303,753 302,752 302,750 301,749 301,747 300,746 300,744 299,743 299,741 298,740 298,738 297,737 297,734 296,733 296,731 295,730 295,729 294,728 294,726 293,725 293,723 292,722 292,720 291,719 291,717 290,716 290,713 289,712 289,711 288,710 288,708 287,707 287,705 286,704 286,702 285,701 285,699 284,698 284,696 283,695 283,693 282,692 282,691 281,690 281,688 280,687 280,685 279,684 279,683 278,682 278,680 277,679 277,678 276,677 276,673 276,676 275,677 275,686 274,687 274,693 273,694 273,698 272,699 272,709 271,710 270,710 269,709 269,708 268,707 268,705 267,704 267,702 266,701 266,699 265,698 265,696 264,695 264,693 263,692 263,690 262,689 262,687 261,686 261,684 260,683 260,680 259,679 259,677 258,676 258,675 257,674 257,672 256,671 256,669 255,668 255,666 254,665 254,663 253,662 253,660 252,659 252,656 251,655 251,653 250,652 250,649 249,648 249,646 248,645 248,643 247,642 247,639 246,638 246,636 245,635 245,633 244,632 244,629 243,628 243,625 242,624 242,621 241,620 241,618 240,617 240,614 239,613 239,609 241,607 242,607 243,606 244,606 247,603 248,603 251,600 252,600 256,596 257,596 259,594 260,594 262,592 263,592 264,591 266,591 267,592 267,594 268,595 268,598 269,599 269,602 270,603 270,606 271,607 271,609 272,610 272,611 273,612 273,615 274,616 274,619 275,620 275,624 276,625 276,628 277,629 277,632 278,633 278,634 279,635 279,636 280,637 280,639 281,640 281,642 282,643 282,646 283,647 283,648 284,649 284,651 285,650 286,650 287,649 288,649 289,648 290,648 291,647 292,647 293,646 294,646 295,645 297,645 298,644 299,644 300,643 302,643 303,642 306,642 307,641 309,641 310,640 311,640 312,639 315,639 316,638 318,638 319,637 321,637 322,636 325,636 326,635 328,635 329,634 330,634 329,633 329,631 328,630 328,629 327,628 327,627 326,626 326,624 325,623 325,621 324,620 324,618 323,617 323,615 322,614 322,613 321,612 321,611 320,610 320,608 319,607 319,606 318,605 318,604 317,603 317,602 316,601 316,599 315,598 315,597 314,596 314,595 313,594 313,592 312,591 312,590 311,589 311,588 310,587 310,586 309,585 309,584 308,583 308,581 307,580 307,579 306,578 306,577 305,576 305,574 304,573 304,572 303,571 303,570 302,569 302,568 301,567 301,565 300,564 300,563 301,562 302,562 303,561 304,561 305,560 306,560 307,559 308,559 309,558 310,558 311,557 312,557 313,556 314,556 315,555 316,555 317,554 318,554 319,553 321,553 322,552 323,552 324,551 325,551 326,550 328,550 328,536 329,535 329,470 326,467 326,465 323,462 323,461 322,460 322,459 321,458 321,457 320,456 320,455 319,454 319,453 317,451 317,450 316,449 316,448 315,447 315,446 314,445 314,444 313,443 313,442 312,441 312,440 311,439 311,438 310,437 310,436 309,435 309,434 308,433 308,432 307,431 307,430 306,429 306,427 305,426 305,424 304,423 304,421 303,420 303,417 302,416 302,414 301,413 301,411 300,410 300,406 299,405 299,401 298,400 298,395 297,394 297,389 296,388 296,364 297,363 297,335 298,334 298,323 299,322 299,318 300,317 300,315 301,314 301,312 302,311 302,310 303,309 303,308 305,306 305,305 306,304 306,303 308,301 308,300 310,298 310,297 312,295 312,294 315,291 315,290 320,285 320,284 323,281 323,280 326,277 326,276 342,260 342,259 343,258 344,258 350,252 351,252 355,248 356,248 360,244 361,244 363,242 364,242 366,240 367,240 369,238 370,238 372,236 373,236 375,234 376,234 377,233 378,233 379,232 380,232 381,231 382,231 383,230 384,230 386,228 387,228 388,227 389,227 390,226 391,226 392,225 393,225 394,224 396,224 397,223 399,223 400,222 401,222 402,221 403,221 404,220 406,220 407,219 408,219 409,218 411,218 412,217 414,217 415,216 417,216 418,215 420,215 421,214 423,214 424,213 426,213 427,212 429,212 430,211 433,211 434,210 437,210 438,209 442,209 443,208 447,208 448,207 452,207 453,206 459,206 460,205 466,205 467,204 475,204 476,203 495,203 496,202 531,202 532,203 552,203 553,204 560,204 561,205 567,205 568,206 572,206 573,207 577,207 578,208 583,208 584,209 587,209 588,210 592,210 593,211 594,211 595,212 597,212 598,213 600,213 601,214 603,214 604,215 606,215 607,216 609,216 610,217 612,217 613,218 615,218 616,219 618,219 619,220 620,220 621,221 622,221 623,222 625,222 626,223 627,223 628,224 629,224 630,225 632,225 633,226 634,226 635,227 636,227 637,228 638,228 639,229 640,229 642,231 643,231 645,233 646,233 647,234 648,234 650,236 651,236 652,237 653,237 656,240 657,240 659,242 660,242 662,244 663,244 666,247 667,247 671,251 672,251 687,266 688,266 689,267 689,268 695,274 695,275 699,279 699,280 703,284 703,285 708,290 708,291 710,293 710,294 713,297 713,298 715,300 715,301 717,303 717,304 718,305 718,306 720,308 720,309 721,310 721,311 722,312 722,313 723,314 723,316 724,317 724,320 725,321 725,329 726,330 726,347 727,348 727,365 728,366 728,368 727,369 728,370 728,371 727,372 728,373 728,375 727,376 727,390 726,391 726,395 725,396 725,401 724,402 724,405 723,406 723,409 722,410 722,413 721,414 721,416 720,417 720,419 719,420 719,422 718,423 718,425 717,426 717,427 716,428 716,430 715,431 715,432 714,433 714,434 713,435 713,436 712,437 712,438 711,439 711,440 710,441 710,442 709,443 709,445 708,446 708,447 707,448 707,449 706,450 706,451 705,452 705,453 704,454 704,455 703,456 703,457 701,459 701,460 700,461 700,462 699,463 699,464 697,466 697,467 695,469 695,472 694,473 694,543 695,544 695,549 696,549 697,550 698,550 699,551 700,551 701,552 702,552 703,553 704,553 705,554 706,554 707,555 708,555 709,556 710,556 711,557 712,557 713,558 714,558 715,559 716,559 717,560 718,560 720,562 722,562 723,563 723,564 722,565 722,566 721,567 721,568 720,569 720,570 719,571 719,572 718,573 718,574 717,575 717,577 716,578 716,579 715,580 715,581 714,582 714,583 713,584 713,585 712,586 712,588 711,589 711,590 710,591 710,592 709,593 709,594 708,595 708,597 707,598 707,600 706,601 706,602 705,603 705,604 704,605 704,606 703,607 703,608 702,609 702,611 701,612 701,613 700,614 700,616 699,617 699,619 698,620 698,621 697,622 697,624 696,625 696,626 695,627 695,628 694,629 694,631 693,632 693,635 696,635 697,636 700,636 701,637 704,637 705,638 707,638 708,639 710,639 711,640 714,640 715,641 717,641 718,642 720,642 721,643 723,643 724,644 725,644 726,645 727,645 728,646 730,646 731,647 732,647 733,648 734,648 735,649 736,649 739,652 739,650 740,649 740,645 741,644 741,642 742,641 742,640 743,639 743,637 744,636 744,633 745,632 745,630 746,629 746,626 747,625 747,622 748,621 748,619 749,618 749,615 750,614 750,613 751,612 751,610 752,609 752,606 753,605 753,602 754,601 754,598 755,597 755,594 756,593 756,592 757,591 759,591 760,592 761,592 763,594 764,594 766,596 767,596 771,600 772,600 775,603 776,603 780,607 781,607 784,610 784,615 783,616 783,618 782,619 782,621 781,622 781,625 780,626 780,628 779,629 779,633 778,634 778,635 777,636 777,638 776,639 776,642 775,643 775,645 774,646 774,648 773,649 773,652 772,653 772,655 771,656 771,658 770,659 770,662 769,663 769,665 768,666 768,668 767,669 767,671 766,672 766,675 765,676 765,678 764,679 764,681 763,682 763,684 762,685 762,686 761,687 761,689 760,690 760,692 759,693 759,695 758,696 758,697 757,698 757,700 756,701 756,703 755,704 755,706 754,707 754,708 753,709 752,708 752,707 751,706 751,700 750,699 750,693 749,692 749,687 748,686 748,681 747,680 747,676 746,675 746,677 745,678 745,680 744,681 744,683 743,684 743,686 742,687 742,689 741,690 741,692 740,693 740,695 739,696 739,698 738,699 738,701 737,702 737,704 736,705 736,707 735,708 735,710 734,711 734,713 733,714 733,716 732,717 732,719 731,720 731,722 730,723 730,724 729,725 729,728 728,729 728,730 727,731 727,734 726,735 726,736 725,737 725,739 724,740 724,742 723,743 723,745 722,746 722,748 721,749 721,752 720,753 720,755 719,756 719,758 718,759 718,761 717,762 717,765 716,766 716,769 715,770 715,772 714,773 714,776 713,777 713,780 712,781 712,783 711,784 711,787 710,788 710,791 709,792 709,795 708,796 708,799 707,800 707,804 706,805 706,808 705,809 705,813 704,814 704,817 703,818 703,823 702,824 702,829 701,830 701,836 700,837 700,841 699,842 699,851 698,852 698,862 697,863 697,871 696,872 696,875 698,875 699,874 701,874 702,873 703,873 704,872 706,872 707,871 708,871 709,870 710,870 711,869 713,869 714,868 715,868 716,867 718,867 719,866 720,866 721,865 722,865 723,864 724,864 725,863 726,863 727,862 728,862 729,861 730,861 731,860 732,860 733,859 735,859 736,858 737,858 738,857 739,857 740,856 741,856 743,854 744,854 745,853 746,853 747,852 748,852 749,851 750,851 751,850 753,850 755,848 756,848 757,847 758,847 760,845 761,845 762,844 763,844 765,842 766,842 767,841 768,841 769,840 770,840 771,839 772,839 774,837 775,837 777,835 778,835 779,834 780,834 782,832 783,832 784,831 785,831 787,829 788,829 790,827 791,827 793,825 794,825 796,823 797,823 799,821 800,821 803,818 804,818 806,816 807,816 809,814 810,814 813,811 814,811 816,809 817,809 819,807 820,807 823,804 824,804 827,801 828,801 831,798 832,798 836,794 837,794 841,790 842,790 847,785 848,785 851,782 852,782 856,778 857,778 867,768 868,768 879,757 880,757 880,756 881,755 881,754 882,753 882,748 881,747 881,739 880,738 880,727 879,726 879,718 878,717 878,710 877,709 877,703 876,702 876,697 875,696 875,691 874,690 874,687 873,686 873,682 872,681 872,679 871,678 871,676 870,675 870,674 869,673 869,671 868,670 868,669 867,668 867,665 866,664 866,663 865,662 865,660 864,659 864,658 863,657 863,655 862,654 862,653 861,652 861,651 860,650 860,649 859,648 859,647 858,646 858,645 855,642 855,641 853,639 853,638 851,636 851,635 849,633 849,632 843,626 843,625 825,607 824,607 820,603 819,603 813,597 812,597 809,594 808,594 806,592 805,592 802,589 801,589 799,587 798,587 796,585 795,585 794,584 793,584 791,582 790,582 788,580 787,580 786,579 785,579 784,578 784,521 783,520 783,515 782,514 782,512 781,511 781,508 780,507 780,506 779,505 779,503 778,502 778,501 776,499 776,498 774,496 774,495 764,485 763,485 760,482 759,482 757,480 756,480 754,478 753,478 752,477 751,477 750,476 749,476 748,475 746,475 745,474 743,474 742,473 740,473 739,472 736,472 735,471 729,471 728,470 710,470 709,469 709,468 710,467 710,466 712,464 712,463 714,461 714,460 715,459 715,458 716,457 716,455 717,454 717,453 718,452 718,451 719,450 719,448 720,447 720,445 721,444 721,442 722,441 722,438 723,437 723,435 724,434 724,431 726,429 727,429 728,428 731,428 732,427 735,427 736,426 737,426 739,424 740,424 742,422 743,422 747,418 748,418 748,417 751,414 751,413 753,411 753,410 754,409 754,408 755,407 755,403 756,402 756,323 755,322 755,319 754,318 754,316 753,315 753,314 751,312 751,311 744,304 743,304 740,301 739,301 738,300 737,300 736,299 734,299 733,298 732,298 731,297 730,297 729,296 729,295 728,294 728,291 727,290 727,288 726,287 726,283 725,282 725,279 724,278 724,276 723,275 723,272 722,271 722,268 721,267 721,265 720,264 720,262 719,261 719,259 718,258 718,256 717,255 717,254 716,253 716,252 715,251 715,249 714,248 714,247 713,246 713,245 712,244 712,243 711,242 711,241 710,240 710,239 709,238 709,236 707,234 707,233 706,232 706,230 704,228 704,227 703,226 703,225 701,223 701,222 700,221 700,220 698,218 698,217 697,216 697,215 695,213 695,212 694,211 694,210 691,207 691,206 687,202 687,201 684,198 684,197 680,193 680,192 676,188 676,187 653,164 652,164 649,161 648,161 644,157 643,157 640,154 639,154 637,152 636,152 633,149 632,149 630,147 629,147 627,145 626,145 625,144 624,144 623,143 622,143 620,141 619,141 618,140 617,140 616,139 615,139 613,137 612,137 611,136 610,136 609,135 608,135 607,134 606,134 605,133 603,133 602,132 601,132 600,131 599,131 598,130 596,130 595,129 594,129 593,128 592,128 591,127 589,127 588,126 587,126 586,125 584,125 583,124 581,124 580,123 578,123 577,122 575,122 574,121 571,121 570,120 568,120 567,119 564,119 563,118 560,118 559,117 555,117 554,116 551,116 550,115 543,115 542,114 534,114 533,113 523,113 522,112 Z"/>
</g>
</svg>